<mxfile host="www.draw.io" modified="2019-12-04T03:29:50.873Z" agent="Mozilla/5.0 (Macintosh; Intel Mac OS X 10_14_6) AppleWebKit/537.36 (KHTML, like Gecko) Chrome/78.0.3904.108 Safari/537.36" etag="uYpnhmzVy33C9o85-tgT" version="12.3.6" type="github" pages="1">
  <diagram id="J5xe0iKr1IKNODLN_qi7" name="第 1 页">
    <mxGraphModel dx="1345" dy="1794" grid="1" gridSize="10" guides="1" tooltips="1" connect="1" arrows="1" fold="1" page="1" pageScale="1" pageWidth="827" pageHeight="1169" math="0" shadow="0">
      <root>
        <mxCell id="0"/>
        <mxCell id="1" parent="0"/>
        <mxCell id="XBM7geb0VtnZKx5DZMU2-45" style="edgeStyle=orthogonalEdgeStyle;rounded=0;orthogonalLoop=1;jettySize=auto;html=1;exitX=0.5;exitY=0;exitDx=0;exitDy=0;entryX=0.5;entryY=1;entryDx=0;entryDy=0;" edge="1" parent="1" source="XBM7geb0VtnZKx5DZMU2-2" target="XBM7geb0VtnZKx5DZMU2-32">
          <mxGeometry relative="1" as="geometry"/>
        </mxCell>
        <mxCell id="XBM7geb0VtnZKx5DZMU2-2" value="视频接入层" style="rounded=1;whiteSpace=wrap;html=1;fillColor=#f5f5f5;strokeColor=#666666;fontColor=#333333;" vertex="1" parent="1">
          <mxGeometry x="180" y="370" width="540" height="30" as="geometry"/>
        </mxCell>
        <mxCell id="XBM7geb0VtnZKx5DZMU2-18" style="edgeStyle=orthogonalEdgeStyle;rounded=0;orthogonalLoop=1;jettySize=auto;html=1;entryX=0.111;entryY=1.033;entryDx=0;entryDy=0;entryPerimeter=0;" edge="1" parent="1" source="XBM7geb0VtnZKx5DZMU2-10" target="XBM7geb0VtnZKx5DZMU2-2">
          <mxGeometry relative="1" as="geometry"/>
        </mxCell>
        <mxCell id="XBM7geb0VtnZKx5DZMU2-10" value="交通视频监控" style="shape=mxgraph.signs.tech.video_camera;html=1;pointerEvents=1;fillColor=#d5e8d4;strokeColor=#82b366;verticalLabelPosition=bottom;verticalAlign=top;align=center;" vertex="1" parent="1">
          <mxGeometry x="191" y="440" width="98" height="40" as="geometry"/>
        </mxCell>
        <mxCell id="XBM7geb0VtnZKx5DZMU2-19" style="edgeStyle=orthogonalEdgeStyle;rounded=0;orthogonalLoop=1;jettySize=auto;html=1;entryX=0.522;entryY=1.033;entryDx=0;entryDy=0;entryPerimeter=0;" edge="1" parent="1" source="XBM7geb0VtnZKx5DZMU2-11" target="XBM7geb0VtnZKx5DZMU2-2">
          <mxGeometry relative="1" as="geometry"/>
        </mxCell>
        <mxCell id="XBM7geb0VtnZKx5DZMU2-11" value="水利、农业等视频监控" style="shape=mxgraph.signs.tech.video_camera;html=1;pointerEvents=1;fillColor=#d5e8d4;strokeColor=#82b366;verticalLabelPosition=bottom;verticalAlign=top;align=center;" vertex="1" parent="1">
          <mxGeometry x="413" y="440" width="98" height="40" as="geometry"/>
        </mxCell>
        <mxCell id="XBM7geb0VtnZKx5DZMU2-20" style="edgeStyle=orthogonalEdgeStyle;rounded=0;orthogonalLoop=1;jettySize=auto;html=1;entryX=0.909;entryY=1.067;entryDx=0;entryDy=0;entryPerimeter=0;" edge="1" parent="1" source="XBM7geb0VtnZKx5DZMU2-12" target="XBM7geb0VtnZKx5DZMU2-2">
          <mxGeometry relative="1" as="geometry"/>
        </mxCell>
        <mxCell id="XBM7geb0VtnZKx5DZMU2-12" value="企业自建视频监控&lt;br&gt;" style="shape=mxgraph.signs.tech.video_camera;html=1;pointerEvents=1;fillColor=#d5e8d4;strokeColor=#82b366;verticalLabelPosition=bottom;verticalAlign=top;align=center;" vertex="1" parent="1">
          <mxGeometry x="622" y="440" width="98" height="40" as="geometry"/>
        </mxCell>
        <mxCell id="XBM7geb0VtnZKx5DZMU2-21" value="义警线索上报" style="shape=mxgraph.signs.tech.camera_2;html=1;pointerEvents=1;fillColor=#dae8fc;strokeColor=#6c8ebf;verticalLabelPosition=bottom;verticalAlign=top;align=center;" vertex="1" parent="1">
          <mxGeometry x="30" y="180" width="60" height="50" as="geometry"/>
        </mxCell>
        <mxCell id="XBM7geb0VtnZKx5DZMU2-22" value="船舶识别" style="shape=mxgraph.signs.transportation.ship_1;html=1;pointerEvents=1;fillColor=#dae8fc;strokeColor=#6c8ebf;verticalLabelPosition=bottom;verticalAlign=top;align=center;" vertex="1" parent="1">
          <mxGeometry x="15.5" y="270" width="89" height="52" as="geometry"/>
        </mxCell>
        <mxCell id="XBM7geb0VtnZKx5DZMU2-23" value="公安情报" style="shape=mxgraph.signs.healthcare.eye;html=1;pointerEvents=1;fillColor=#dae8fc;strokeColor=#6c8ebf;verticalLabelPosition=bottom;verticalAlign=top;align=center;" vertex="1" parent="1">
          <mxGeometry x="20" y="90" width="80" height="55" as="geometry"/>
        </mxCell>
        <mxCell id="XBM7geb0VtnZKx5DZMU2-46" style="edgeStyle=orthogonalEdgeStyle;rounded=0;orthogonalLoop=1;jettySize=auto;html=1;entryX=0;entryY=0.5;entryDx=0;entryDy=0;" edge="1" parent="1" source="XBM7geb0VtnZKx5DZMU2-24" target="XBM7geb0VtnZKx5DZMU2-33">
          <mxGeometry relative="1" as="geometry"/>
        </mxCell>
        <mxCell id="XBM7geb0VtnZKx5DZMU2-24" value="情报&lt;br&gt;线索&lt;br&gt;接入" style="rounded=1;whiteSpace=wrap;html=1;fillColor=#f5f5f5;strokeColor=#666666;fontColor=#333333;" vertex="1" parent="1">
          <mxGeometry x="130" y="70" width="40" height="290" as="geometry"/>
        </mxCell>
        <mxCell id="XBM7geb0VtnZKx5DZMU2-49" style="edgeStyle=orthogonalEdgeStyle;rounded=0;orthogonalLoop=1;jettySize=auto;html=1;entryX=1;entryY=0.5;entryDx=0;entryDy=0;" edge="1" parent="1" source="XBM7geb0VtnZKx5DZMU2-26" target="XBM7geb0VtnZKx5DZMU2-35">
          <mxGeometry relative="1" as="geometry"/>
        </mxCell>
        <mxCell id="XBM7geb0VtnZKx5DZMU2-26" value="系统&lt;br&gt;数据&lt;br&gt;录入" style="rounded=1;whiteSpace=wrap;html=1;fillColor=#f5f5f5;strokeColor=#666666;fontColor=#333333;" vertex="1" parent="1">
          <mxGeometry x="740" y="70" width="40" height="290" as="geometry"/>
        </mxCell>
        <mxCell id="XBM7geb0VtnZKx5DZMU2-27" value="重要部位人员录入" style="shape=mxgraph.signs.people.man_1;html=1;pointerEvents=1;fillColor=#fff2cc;strokeColor=#d6b656;verticalLabelPosition=bottom;verticalAlign=top;align=center;" vertex="1" parent="1">
          <mxGeometry x="844" y="81" width="30" height="80" as="geometry"/>
        </mxCell>
        <mxCell id="XBM7geb0VtnZKx5DZMU2-29" value="地图地理标志" style="shape=mxgraph.signs.transportation.anchor_4;html=1;pointerEvents=1;fillColor=#fff2cc;strokeColor=#d6b656;verticalLabelPosition=bottom;verticalAlign=top;align=center;" vertex="1" parent="1">
          <mxGeometry x="827" y="230" width="64" height="59" as="geometry"/>
        </mxCell>
        <mxCell id="XBM7geb0VtnZKx5DZMU2-48" style="edgeStyle=orthogonalEdgeStyle;rounded=0;orthogonalLoop=1;jettySize=auto;html=1;" edge="1" parent="1" source="XBM7geb0VtnZKx5DZMU2-32" target="XBM7geb0VtnZKx5DZMU2-35">
          <mxGeometry relative="1" as="geometry"/>
        </mxCell>
        <mxCell id="XBM7geb0VtnZKx5DZMU2-32" value="视频识别/处理" style="rounded=1;whiteSpace=wrap;html=1;fillColor=#e1d5e7;strokeColor=#9673a6;" vertex="1" parent="1">
          <mxGeometry x="310" y="263" width="280" height="60" as="geometry"/>
        </mxCell>
        <mxCell id="XBM7geb0VtnZKx5DZMU2-54" style="edgeStyle=orthogonalEdgeStyle;rounded=0;orthogonalLoop=1;jettySize=auto;html=1;" edge="1" parent="1" source="XBM7geb0VtnZKx5DZMU2-33">
          <mxGeometry relative="1" as="geometry">
            <mxPoint x="255" y="50" as="targetPoint"/>
          </mxGeometry>
        </mxCell>
        <mxCell id="XBM7geb0VtnZKx5DZMU2-56" style="edgeStyle=orthogonalEdgeStyle;rounded=0;orthogonalLoop=1;jettySize=auto;html=1;" edge="1" parent="1" source="XBM7geb0VtnZKx5DZMU2-33">
          <mxGeometry relative="1" as="geometry">
            <mxPoint x="400" y="161" as="targetPoint"/>
          </mxGeometry>
        </mxCell>
        <mxCell id="XBM7geb0VtnZKx5DZMU2-33" value="情报分析" style="rounded=1;whiteSpace=wrap;html=1;fillColor=#e1d5e7;strokeColor=#9673a6;" vertex="1" parent="1">
          <mxGeometry x="220" y="90" width="70" height="142" as="geometry"/>
        </mxCell>
        <mxCell id="XBM7geb0VtnZKx5DZMU2-55" style="edgeStyle=orthogonalEdgeStyle;rounded=0;orthogonalLoop=1;jettySize=auto;html=1;" edge="1" parent="1" source="XBM7geb0VtnZKx5DZMU2-35">
          <mxGeometry relative="1" as="geometry">
            <mxPoint x="450" y="50" as="targetPoint"/>
          </mxGeometry>
        </mxCell>
        <mxCell id="XBM7geb0VtnZKx5DZMU2-35" value="数据库" style="shape=cylinder;whiteSpace=wrap;html=1;boundedLbl=1;backgroundOutline=1;fillColor=#ffe6cc;strokeColor=#d79b00;" vertex="1" parent="1">
          <mxGeometry x="405" y="106.5" width="90" height="110" as="geometry"/>
        </mxCell>
        <mxCell id="XBM7geb0VtnZKx5DZMU2-36" value="Web页面/案件查询等" style="rounded=1;whiteSpace=wrap;html=1;fillColor=#dae8fc;strokeColor=#6c8ebf;" vertex="1" parent="1">
          <mxGeometry x="130" y="-110" width="209" height="60" as="geometry"/>
        </mxCell>
        <mxCell id="XBM7geb0VtnZKx5DZMU2-37" value="预警信息" style="rounded=1;whiteSpace=wrap;html=1;fillColor=#e3c800;strokeColor=#B09500;fontColor=#ffffff;" vertex="1" parent="1">
          <mxGeometry x="590" y="-110" width="190" height="60" as="geometry"/>
        </mxCell>
        <mxCell id="XBM7geb0VtnZKx5DZMU2-42" value="实时指挥室" style="rounded=1;whiteSpace=wrap;html=1;fillColor=#1ba1e2;strokeColor=#006EAF;fontColor=#ffffff;" vertex="1" parent="1">
          <mxGeometry x="369.5" y="-110" width="190" height="60" as="geometry"/>
        </mxCell>
        <mxCell id="XBM7geb0VtnZKx5DZMU2-58" style="edgeStyle=orthogonalEdgeStyle;rounded=0;orthogonalLoop=1;jettySize=auto;html=1;entryX=0.5;entryY=1;entryDx=0;entryDy=0;" edge="1" parent="1" source="XBM7geb0VtnZKx5DZMU2-43" target="XBM7geb0VtnZKx5DZMU2-36">
          <mxGeometry relative="1" as="geometry">
            <Array as="points">
              <mxPoint x="235" y="-10"/>
              <mxPoint x="235" y="-10"/>
            </Array>
          </mxGeometry>
        </mxCell>
        <mxCell id="XBM7geb0VtnZKx5DZMU2-59" value="查询" style="text;html=1;align=center;verticalAlign=middle;resizable=0;points=[];;labelBackgroundColor=#ffffff;" vertex="1" connectable="0" parent="XBM7geb0VtnZKx5DZMU2-58">
          <mxGeometry x="-0.05" relative="1" as="geometry">
            <mxPoint as="offset"/>
          </mxGeometry>
        </mxCell>
        <mxCell id="XBM7geb0VtnZKx5DZMU2-61" value="查询/推送" style="edgeStyle=orthogonalEdgeStyle;rounded=0;orthogonalLoop=1;jettySize=auto;html=1;" edge="1" parent="1" source="XBM7geb0VtnZKx5DZMU2-43">
          <mxGeometry relative="1" as="geometry">
            <mxPoint x="455" y="-40" as="targetPoint"/>
          </mxGeometry>
        </mxCell>
        <mxCell id="XBM7geb0VtnZKx5DZMU2-63" style="edgeStyle=orthogonalEdgeStyle;rounded=0;orthogonalLoop=1;jettySize=auto;html=1;entryX=0.5;entryY=1;entryDx=0;entryDy=0;" edge="1" parent="1" source="XBM7geb0VtnZKx5DZMU2-43" target="XBM7geb0VtnZKx5DZMU2-37">
          <mxGeometry relative="1" as="geometry">
            <Array as="points">
              <mxPoint x="685" y="-10"/>
              <mxPoint x="685" y="-10"/>
            </Array>
          </mxGeometry>
        </mxCell>
        <mxCell id="XBM7geb0VtnZKx5DZMU2-64" value="推送" style="text;html=1;align=center;verticalAlign=middle;resizable=0;points=[];;labelBackgroundColor=#ffffff;" vertex="1" connectable="0" parent="XBM7geb0VtnZKx5DZMU2-63">
          <mxGeometry x="-0.1" y="-1" relative="1" as="geometry">
            <mxPoint as="offset"/>
          </mxGeometry>
        </mxCell>
        <mxCell id="XBM7geb0VtnZKx5DZMU2-43" value="应用服务接口" style="rounded=1;whiteSpace=wrap;html=1;fillColor=#d5e8d4;strokeColor=#82b366;arcSize=15;" vertex="1" parent="1">
          <mxGeometry x="130" y="-10" width="650" height="55" as="geometry"/>
        </mxCell>
      </root>
    </mxGraphModel>
  </diagram>
</mxfile>
